<?xml version="1.0" standalone="no"?>
<!DOCTYPE svg PUBLIC "-//W3C//DTD SVG 20010904//EN"
 "http://www.w3.org/TR/2001/REC-SVG-20010904/DTD/svg10.dtd">
<svg version="1.0" xmlns="http://www.w3.org/2000/svg"
 width="250.000000pt" height="250.000000pt" viewBox="0 0 250.000000 250.000000"
 preserveAspectRatio="xMidYMid meet">

<g transform="translate(0.000000,250.000000) scale(0.100000,-0.100000)"
fill="#000000" stroke="none">
<path d="M10 2195 l0 -295 295 0 295 0 0 295 0 295 -295 0 -295 0 0 -295z
m510 0 l0 -215 -215 0 -215 0 0 215 0 215 215 0 215 0 0 -215z"/>
<path d="M180 2195 l0 -125 125 0 125 0 0 125 0 125 -125 0 -125 0 0 -125z"/>
<path d="M860 2405 l0 -85 45 0 45 0 0 85 0 85 -45 0 -45 0 0 -85z"/>
<path d="M1030 2450 l0 -40 45 0 45 0 0 40 0 40 -45 0 -45 0 0 -40z"/>
<path d="M1290 2450 l0 -40 -45 0 -45 0 0 -85 0 -85 -40 0 -40 0 0 40 0 40
-45 0 -45 0 0 -85 0 -85 85 0 85 0 0 -40 0 -40 45 0 45 0 0 -45 0 -45 -45 0
-45 0 0 -40 0 -40 -40 0 -40 0 0 85 0 85 -85 0 -85 0 0 -45 0 -45 -45 0 -45 0
0 85 0 85 45 0 45 0 0 45 0 45 -130 0 -130 0 0 -45 0 -45 40 0 40 0 0 -40 0
-40 -40 0 -40 0 0 -85 0 -85 40 0 40 0 0 -45 0 -45 -125 0 -125 0 0 -40 0 -40
-45 0 -45 0 0 40 0 40 -210 0 -210 0 0 -215 0 -215 40 0 40 0 0 -170 0 -170
-40 0 -40 0 0 -170 0 -170 40 0 40 0 0 170 0 170 45 0 45 0 0 -40 0 -40 85 0
85 0 0 -45 0 -45 -45 0 -45 0 0 -45 0 -45 -40 0 -40 0 0 -40 0 -40 85 0 85 0
0 40 0 40 40 0 40 0 0 -40 0 -40 85 0 85 0 0 40 0 40 45 0 45 0 0 -125 0 -125
40 0 40 0 0 -45 0 -45 -40 0 -40 0 0 -215 0 -215 130 0 130 0 0 175 0 175 40
0 40 0 0 -45 0 -45 45 0 45 0 0 -40 0 -40 -45 0 -45 0 0 -90 0 -90 45 0 45 0
0 45 0 45 40 0 40 0 0 -45 0 -45 45 0 45 0 0 45 0 45 85 0 85 0 0 45 0 45 40
0 40 0 0 -45 0 -45 45 0 45 0 0 45 0 45 85 0 85 0 0 -90 0 -90 45 0 45 0 0 90
0 90 40 0 40 0 0 -45 0 -45 85 0 85 0 0 -45 0 -45 130 0 130 0 0 45 0 45 45 0
45 0 0 45 0 45 -45 0 -45 0 0 40 0 40 -45 0 -45 0 0 -85 0 -85 -40 0 -40 0 0
130 0 130 40 0 40 0 0 85 0 85 45 0 45 0 0 85 0 85 45 0 45 0 0 215 0 215 -45
0 -45 0 0 40 0 40 -45 0 -45 0 0 85 0 85 -40 0 -40 0 0 45 0 45 85 0 85 0 0
40 0 40 45 0 45 0 0 45 0 45 -90 0 -90 0 0 45 0 45 45 0 45 0 0 40 0 40 -45 0
-45 0 0 -40 0 -40 -40 0 -40 0 0 40 0 40 -45 0 -45 0 0 -40 0 -40 45 0 45 0 0
-45 0 -45 -45 0 -45 0 0 -45 0 -45 -40 0 -40 0 0 130 0 130 -45 0 -45 0 0
-130 0 -130 45 0 45 0 0 -40 0 -40 -45 0 -45 0 0 -45 0 -45 -85 0 -85 0 0
-125 0 -125 -85 0 -85 0 0 85 0 85 45 0 45 0 0 85 0 85 40 0 40 0 0 85 0 85
45 0 45 0 0 85 0 85 -45 0 -45 0 0 85 0 85 -40 0 -40 0 0 45 0 45 40 0 40 0 0
170 0 170 -40 0 -40 0 0 40 0 40 -90 0 -90 0 0 -125 0 -125 -40 0 -40 0 0 40
0 40 -45 0 -45 0 0 -40 0 -40 -40 0 -40 0 0 85 0 85 85 0 85 0 0 40 0 40 -85
0 -85 0 0 -40z m0 -255 l0 -45 -45 0 -45 0 0 45 0 45 45 0 45 0 0 -45z m170
-40 l0 -85 40 0 40 0 0 85 0 85 90 0 90 0 0 -45 0 -45 -45 0 -45 0 0 -40 0
-40 -45 0 -45 0 0 -130 0 -130 90 0 90 0 0 -40 0 -40 40 0 40 0 0 -45 0 -45
-40 0 -40 0 0 -85 0 -85 -45 0 -45 0 0 -45 0 -45 -45 0 -45 0 0 45 0 45 -40 0
-40 0 0 85 0 85 -85 0 -85 0 0 170 0 170 40 0 40 0 0 130 0 130 45 0 45 0 0
-85z m-600 -215 l0 -40 -45 0 -45 0 0 40 0 40 45 0 45 0 0 -40z m170 0 l0 -40
45 0 45 0 0 -85 0 -85 40 0 40 0 0 -90 0 -90 85 0 85 0 0 -40 0 -40 -40 0 -40
0 0 -45 0 -45 85 0 85 0 0 -40 0 -40 -85 0 -85 0 0 40 0 40 -45 0 -45 0 0
-125 0 -125 45 0 45 0 0 -45 0 -45 40 0 40 0 0 -40 0 -40 45 0 45 0 0 40 0 40
40 0 40 0 0 -40 0 -40 45 0 45 0 0 40 0 40 85 0 85 0 0 -40 0 -40 45 0 45 0 0
-45 0 -45 85 0 85 0 0 -45 0 -45 -85 0 -85 0 0 45 0 45 -45 0 -45 0 0 -45 0
-45 -40 0 -40 0 0 45 0 45 -90 0 -90 0 0 -45 0 -45 -40 0 -40 0 0 45 0 45 -45
0 -45 0 0 -45 0 -45 -85 0 -85 0 0 -40 0 -40 170 0 170 0 0 -45 0 -45 45 0 45
0 0 -40 0 -40 45 0 45 0 0 -85 0 -85 85 0 85 0 0 -45 0 -45 -130 0 -130 0 0
-40 0 -40 -45 0 -45 0 0 40 0 40 45 0 45 0 0 130 0 130 -45 0 -45 0 0 -85 0
-85 -40 0 -40 0 0 -85 0 -85 -85 0 -85 0 0 -45 0 -45 -45 0 -45 0 0 45 0 45
45 0 45 0 0 85 0 85 -130 0 -130 0 0 85 0 85 45 0 45 0 0 40 0 40 -85 0 -85 0
0 -40 0 -40 -45 0 -45 0 0 85 0 85 -45 0 -45 0 0 85 0 85 45 0 45 0 0 45 0 45
-45 0 -45 0 0 40 0 40 130 0 130 0 0 85 0 85 45 0 45 0 0 45 0 45 -130 0 -130
0 0 -45 0 -45 -45 0 -45 0 0 45 0 45 45 0 45 0 0 40 0 40 45 0 45 0 0 45 0 45
-90 0 -90 0 0 -45 0 -45 -40 0 -40 0 0 -255 0 -255 -45 0 -45 0 0 -45 0 -45
-40 0 -40 0 0 45 0 45 40 0 40 0 0 45 0 45 -40 0 -40 0 0 40 0 40 40 0 40 0 0
45 0 45 -40 0 -40 0 0 40 0 40 -85 0 -85 0 0 45 0 45 40 0 40 0 0 40 0 40 85
0 85 0 0 45 0 45 -40 0 -40 0 0 40 0 40 40 0 40 0 0 45 0 45 -40 0 -40 0 0 45
0 45 40 0 40 0 0 -45 0 -45 45 0 45 0 0 45 0 45 85 0 85 0 0 40 0 40 45 0 45
0 0 -40 0 -40 40 0 40 0 0 85 0 85 -40 0 -40 0 0 40 0 40 40 0 40 0 0 -40z
m690 0 l0 -40 -45 0 -45 0 0 40 0 40 45 0 45 0 0 -40z m-1370 -255 l0 -45 40
0 40 0 0 -45 0 -45 -85 0 -85 0 0 -40 0 -40 -40 0 -40 0 0 40 0 40 -45 0 -45
0 0 45 0 45 45 0 45 0 0 -45 0 -45 40 0 40 0 0 90 0 90 45 0 45 0 0 -45z
m1960 -90 l0 -45 -40 0 -40 0 0 -40 0 -40 -45 0 -45 0 0 40 0 40 45 0 45 0 0
45 0 45 40 0 40 0 0 -45z m-80 -255 l0 -40 -45 0 -45 0 0 40 0 40 45 0 45 0 0
-40z m-1970 -170 l0 -130 -40 0 -40 0 0 130 0 130 40 0 40 0 0 -130z m1710 85
l0 -45 -40 0 -40 0 0 45 0 45 40 0 40 0 0 -45z m260 -85 l0 -40 -45 0 -45 0 0
40 0 40 45 0 45 0 0 -40z m-1800 -85 l0 -45 -40 0 -40 0 0 45 0 45 40 0 40 0
0 -45z m1630 0 l0 -45 -45 0 -45 0 0 45 0 45 45 0 45 0 0 -45z m340 -130 l0
-85 -45 0 -45 0 0 -45 0 -45 45 0 45 0 0 -40 0 -40 -45 0 -45 0 0 40 0 40 -85
0 -85 0 0 45 0 45 85 0 85 0 0 45 0 45 -85 0 -85 0 0 40 0 40 130 0 130 0 0
-85z m-340 -385 l0 -130 -130 0 -130 0 0 130 0 130 130 0 130 0 0 -130z m250
0 l0 -40 -40 0 -40 0 0 -45 0 -45 -45 0 -45 0 0 45 0 45 45 0 45 0 0 40 0 40
40 0 40 0 0 -40z m-1360 -170 l0 -40 -45 0 -45 0 0 -45 0 -45 -45 0 -45 0 0
45 0 45 45 0 45 0 0 40 0 40 45 0 45 0 0 -40z m1110 -170 l0 -40 -45 0 -45 0
0 40 0 40 45 0 45 0 0 -40z"/>
<path d="M1370 1940 l0 -40 45 0 45 0 0 40 0 40 -45 0 -45 0 0 -40z"/>
<path d="M1460 1685 l0 -45 40 0 40 0 0 -45 0 -45 45 0 45 0 0 45 0 45 45 0
45 0 0 45 0 45 -45 0 -45 0 0 -45 0 -45 -45 0 -45 0 0 45 0 45 -40 0 -40 0 0
-45z"/>
<path d="M860 1640 l0 -90 45 0 45 0 0 90 0 90 -45 0 -45 0 0 -90z"/>
<path d="M1030 1685 l0 -45 45 0 45 0 0 45 0 45 -45 0 -45 0 0 -45z"/>
<path d="M600 1510 l0 -40 45 0 45 0 0 40 0 40 -45 0 -45 0 0 -40z"/>
<path d="M1030 1465 l0 -85 45 0 45 0 0 85 0 85 -45 0 -45 0 0 -85z"/>
<path d="M520 1255 l0 -45 40 0 40 0 0 45 0 45 -40 0 -40 0 0 -45z"/>
<path d="M1030 1000 l0 -40 45 0 45 0 0 -45 0 -45 -45 0 -45 0 0 -85 0 -85 45
0 45 0 0 40 0 40 40 0 40 0 0 45 0 45 45 0 45 0 0 45 0 45 -45 0 -45 0 0 40 0
40 -85 0 -85 0 0 -40z"/>
<path d="M1460 915 l0 -45 40 0 40 0 0 45 0 45 -40 0 -40 0 0 -45z"/>
<path d="M1720 915 l0 -45 40 0 40 0 0 45 0 45 -40 0 -40 0 0 -45z"/>
<path d="M860 785 l0 -85 45 0 45 0 0 85 0 85 -45 0 -45 0 0 -85z"/>
<path d="M1290 570 l0 -40 -45 0 -45 0 0 -45 0 -45 130 0 130 0 0 85 0 85 -85
0 -85 0 0 -40z"/>
<path d="M1890 570 l0 -40 40 0 40 0 0 40 0 40 -40 0 -40 0 0 -40z"/>
<path d="M1890 2195 l0 -295 300 0 300 0 0 295 0 295 -300 0 -300 0 0 -295z
m510 0 l0 -215 -215 0 -215 0 0 215 0 215 215 0 215 0 0 -215z"/>
<path d="M2060 2195 l0 -125 125 0 125 0 0 125 0 125 -125 0 -125 0 0 -125z"/>
<path d="M690 2365 l0 -45 40 0 40 0 0 45 0 45 -40 0 -40 0 0 -45z"/>
<path d="M2400 1340 l0 -40 45 0 45 0 0 40 0 40 -45 0 -45 0 0 -40z"/>
<path d="M10 310 l0 -300 295 0 295 0 0 300 0 300 -295 0 -295 0 0 -300z m510
5 l0 -215 -215 0 -215 0 0 215 0 215 215 0 215 0 0 -215z"/>
<path d="M180 315 l0 -125 125 0 125 0 0 125 0 125 -125 0 -125 0 0 -125z"/>
<path d="M2400 400 l0 -40 45 0 45 0 0 40 0 40 -45 0 -45 0 0 -40z"/>
</g>
</svg>
